<svg xmlns="http://www.w3.org/2000/svg" id="canvas" viewBox="228.635 301.407 1050.172 207.823"><path d="M 283.29,305.22 C 282.09 306.38, 281.82 307.80, 281.32 311.28 C 280.83 314.76, 281.17 317.14, 280.82 322.63 C 280.47 328.11, 280.32 331.59, 279.59 338.69 C 278.87 345.79, 278.38 349.84, 277.20 358.12 C 276.03 366.40, 275.21 371.02, 273.72 380.09 C 272.24 389.16, 271.33 394.11, 269.79 403.47 C 268.26 412.83, 267.46 417.75, 266.05 426.91 C 264.63 436.06, 263.89 440.83, 262.72 449.24 C 261.55 457.65, 261.04 461.82, 260.20 468.95 C 259.36 476.08, 259.10 479.36, 258.51 484.89 C 257.93 490.43, 257.39 492.96, 257.26 496.63 C 257.14 500.30, 257.46 501.41, 257.90 503.25 C 258.33 505.09, 258.76 505.30, 259.45 505.82 C 260.15 506.35, 260.65 506.37, 261.37 505.86 C 262.08 505.35, 262.57 505.09, 263.03 503.28 C 263.48 501.46, 263.60 500.39, 263.64 496.77 C 263.68 493.15, 263.14 490.67, 263.22 485.18 C 263.30 479.69, 263.46 476.43, 264.04 469.34 C 264.61 462.24, 265.07 458.08, 266.10 449.69 C 267.14 441.30, 267.86 436.53, 269.23 427.40 C 270.61 418.26, 271.40 413.34, 272.98 404.00 C 274.55 394.65, 275.49 389.72, 277.10 380.67 C 278.71 371.61, 279.59 366.99, 281.03 358.72 C 282.47 350.45, 283.16 346.41, 284.32 339.32 C 285.48 332.23, 285.99 328.76, 286.83 323.27 C 287.67 317.79, 288.40 315.44, 288.50 311.88 C 288.60 308.33, 288.37 306.81, 287.33 305.47 C 286.29 304.14, 284.49 304.06, 283.29 305.22" style="stroke: black; stroke-width: 14px; fill: black;"/><path d="M 232.01,406.69 C 232.69 408.04, 233.43 409.06, 235.87 409.66 C 238.30 410.27, 240.06 409.95, 244.19 409.71 C 248.33 409.46, 251.01 408.97, 256.55 408.45 C 262.08 407.94, 265.38 407.67, 271.87 407.14 C 278.36 406.61, 282.59 406.30, 288.99 405.81 C 295.40 405.31, 298.92 405.16, 303.87 404.67 C 308.82 404.18, 311.82 404.35, 313.74 403.36 C 315.67 402.36, 315.55 400.45, 313.51 399.71 C 311.47 398.96, 308.51 399.46, 303.53 399.65 C 298.55 399.83, 295.02 400.20, 288.62 400.63 C 282.22 401.07, 278.00 401.53, 271.53 401.82 C 265.07 402.11, 261.77 402.17, 256.30 402.09 C 250.83 402.00, 248.16 401.63, 244.19 401.40 C 240.21 401.16, 238.76 400.61, 236.42 400.91 C 234.08 401.21, 233.37 401.75, 232.49 402.90 C 231.61 404.06, 231.34 405.34, 232.01 406.69" style="stroke: black; stroke-width: 14px; fill: black;"/><path d="M 402.37,402.91 C 402.57 401.35, 402.05 400.21, 400.69 398.60 C 399.33 396.98, 398.26 395.93, 395.57 394.86 C 392.87 393.79, 390.79 393.21, 387.20 393.25 C 383.62 393.28, 381.60 393.82, 377.65 395.04 C 373.70 396.25, 371.58 397.07, 367.45 399.32 C 363.32 401.57, 361.17 402.89, 357.00 406.29 C 352.84 409.69, 350.55 411.78, 346.63 416.32 C 342.71 420.87, 340.65 423.63, 337.42 429.02 C 334.18 434.41, 332.61 437.59, 330.47 443.29 C 328.33 448.98, 327.51 452.12, 326.72 457.50 C 325.92 462.89, 325.78 465.64, 326.50 470.19 C 327.22 474.75, 327.84 477.20, 330.32 480.29 C 332.79 483.37, 335.07 484.74, 338.87 485.61 C 342.68 486.49, 345.04 486.02, 349.33 484.66 C 353.61 483.29, 355.81 481.96, 360.29 478.79 C 364.76 475.63, 367.15 473.42, 371.71 468.84 C 376.26 464.27, 378.61 461.40, 383.06 455.92 C 387.51 450.43, 389.85 447.17, 393.95 441.43 C 398.06 435.69, 400.17 432.48, 403.59 427.22 C 407.02 421.96, 408.48 419.25, 411.08 415.12 C 413.68 411.00, 415.47 409.41, 416.59 406.60 C 417.71 403.79, 417.45 402.31, 416.68 401.07 C 415.92 399.83, 414.14 399.35, 412.77 400.39 C 411.40 401.43, 410.49 402.72, 409.82 406.27 C 409.16 409.82, 409.62 412.58, 409.44 418.13 C 409.26 423.67, 409.13 427.43, 408.92 433.98 C 408.70 440.53, 408.52 444.49, 408.38 450.87 C 408.25 457.26, 408.08 460.50, 408.24 465.89 C 408.40 471.28, 408.21 473.75, 409.19 477.82 C 410.18 481.88, 410.81 484.05, 413.17 486.22 C 415.53 488.40, 418.00 488.61, 421.01 488.69 C 424.02 488.78, 426.17 488.14, 428.22 486.66 C 430.27 485.17, 431.27 483.10, 431.25 481.28 C 431.23 479.45, 429.68 478.07, 428.12 477.54 C 426.55 477.01, 425.04 477.95, 423.44 478.64 C 421.84 479.33, 421.28 480.43, 420.13 480.99 C 418.98 481.56, 418.61 482.41, 417.68 481.46 C 416.75 480.52, 416.28 479.44, 415.49 476.26 C 414.69 473.09, 414.08 470.65, 413.69 465.60 C 413.29 460.54, 413.36 457.24, 413.51 450.99 C 413.66 444.74, 413.84 440.76, 414.44 434.33 C 415.03 427.90, 415.59 424.20, 416.50 418.83 C 417.40 413.46, 418.68 411.05, 418.95 407.48 C 419.23 403.91, 418.93 402.59, 417.87 400.99 C 416.81 399.39, 415.30 399.03, 413.65 399.47 C 412.00 399.92, 411.12 400.62, 409.62 403.21 C 408.12 405.80, 408.15 408.12, 406.14 412.42 C 404.13 416.71, 402.73 419.42, 399.56 424.70 C 396.39 429.98, 394.32 433.18, 390.31 438.83 C 386.29 444.48, 383.93 447.71, 379.50 452.97 C 375.06 458.22, 372.63 460.96, 368.11 465.11 C 363.60 469.26, 361.09 471.16, 356.93 473.73 C 352.76 476.30, 350.61 477.03, 347.30 477.96 C 344.00 478.88, 342.72 478.79, 340.41 478.37 C 338.10 477.94, 337.32 477.70, 335.76 475.84 C 334.20 473.99, 333.34 472.63, 332.62 469.11 C 331.90 465.58, 331.64 463.02, 332.18 458.22 C 332.71 453.41, 333.36 450.37, 335.29 445.06 C 337.21 439.75, 338.72 436.70, 341.80 431.67 C 344.88 426.65, 346.90 424.04, 350.69 419.93 C 354.47 415.82, 356.74 413.96, 360.71 411.11 C 364.67 408.25, 366.76 407.22, 370.52 405.66 C 374.27 404.10, 376.30 403.69, 379.49 403.32 C 382.67 402.95, 383.99 403.33, 386.44 403.81 C 388.89 404.28, 389.85 405.13, 391.75 405.68 C 393.65 406.24, 394.36 406.42, 395.95 406.56 C 397.54 406.71, 398.42 407.13, 399.70 406.40 C 400.98 405.67, 402.17 404.47, 402.37 402.91" style="stroke: black; stroke-width: 14px; fill: black;"/><path d="M 474.45,400.88 C 473.19 401.84, 472.53 402.86, 472.12 405.52 C 471.70 408.19, 472.39 409.97, 472.37 414.20 C 472.35 418.43, 472.41 421.34, 472.01 426.67 C 471.61 432.01, 471.11 435.24, 470.37 440.87 C 469.63 446.50, 469.13 449.72, 468.31 454.82 C 467.50 459.91, 466.56 462.50, 466.30 466.35 C 466.03 470.21, 465.84 471.93, 466.98 474.08 C 468.13 476.22, 469.75 477.06, 472.02 477.06 C 474.28 477.07, 476.08 476.62, 478.30 474.09 C 480.52 471.56, 480.71 468.98, 483.12 464.40 C 485.53 459.81, 486.92 456.75, 490.33 451.19 C 493.75 445.62, 495.94 442.25, 500.19 436.57 C 504.44 430.89, 506.97 427.74, 511.57 422.78 C 516.18 417.82, 518.73 415.34, 523.22 411.75 C 527.71 408.16, 530.14 406.72, 534.04 404.82 C 537.93 402.92, 539.84 402.57, 542.69 402.26 C 545.55 401.95, 546.36 402.21, 548.30 403.28 C 550.25 404.34, 550.91 404.90, 552.43 407.59 C 553.94 410.28, 554.85 412.32, 555.88 416.73 C 556.90 421.13, 557.24 424.10, 557.54 429.61 C 557.85 435.12, 557.67 438.70, 557.41 444.28 C 557.14 449.85, 556.61 453.09, 556.23 457.49 C 555.85 461.89, 555.25 463.59, 555.49 466.28 C 555.72 468.96, 556.50 469.98, 557.40 470.92 C 558.31 471.85, 559.07 471.80, 560.00 470.96 C 560.93 470.11, 561.50 469.28, 562.05 466.68 C 562.61 464.08, 562.53 462.39, 562.77 457.95 C 563.02 453.52, 563.14 450.21, 563.28 444.49 C 563.42 438.77, 563.69 435.17, 563.49 429.35 C 563.29 423.53, 563.26 420.45, 562.30 415.38 C 561.33 410.31, 560.81 407.72, 558.67 404.02 C 556.52 400.31, 554.94 398.49, 551.57 396.85 C 548.21 395.21, 545.84 395.20, 541.82 395.82 C 537.80 396.44, 535.79 397.51, 531.46 399.96 C 527.14 402.41, 524.82 404.12, 520.18 408.08 C 515.54 412.03, 513.02 414.61, 508.29 419.74 C 503.56 424.88, 501.01 428.06, 496.52 433.74 C 492.03 439.43, 489.72 442.80, 485.83 448.18 C 481.94 453.56, 480.07 456.50, 477.08 460.66 C 474.08 464.82, 472.18 466.38, 470.86 468.98 C 469.55 471.58, 470.17 472.83, 470.52 473.68 C 470.87 474.53, 472.00 474.57, 472.61 473.23 C 473.23 471.88, 473.26 470.48, 473.61 466.95 C 473.95 463.43, 473.80 460.66, 474.32 455.61 C 474.83 450.55, 475.34 447.33, 476.19 441.69 C 477.03 436.05, 477.74 432.82, 478.56 427.42 C 479.38 422.02, 479.77 419.07, 480.30 414.71 C 480.82 410.35, 481.55 408.40, 481.19 405.60 C 480.82 402.80, 479.80 401.66, 478.45 400.71 C 477.10 399.77, 475.72 399.92, 474.45 400.88" style="stroke: black; stroke-width: 14px; fill: black;"/><path d="M 774.38,405.10 C 774.20 403.50, 773.46 402.35, 771.53 400.93 C 769.60 399.50, 768.06 398.46, 764.74 397.99 C 761.41 397.52, 759.03 397.82, 754.90 398.58 C 750.77 399.33, 748.63 399.98, 744.08 401.77 C 739.53 403.56, 737.01 404.55, 732.16 407.52 C 727.31 410.49, 724.58 412.35, 719.82 416.61 C 715.06 420.88, 712.59 423.52, 708.38 428.85 C 704.17 434.17, 701.96 437.32, 698.78 443.23 C 695.60 449.14, 694.20 452.55, 692.48 458.40 C 690.77 464.25, 690.26 467.32, 690.22 472.48 C 690.17 477.65, 690.43 480.28, 692.26 484.24 C 694.10 488.21, 695.83 490.31, 699.41 492.31 C 702.98 494.31, 705.62 494.68, 710.15 494.25 C 714.69 493.82, 717.19 492.82, 722.08 490.17 C 726.98 487.52, 729.53 485.62, 734.63 481.01 C 739.73 476.40, 742.36 473.45, 747.57 467.10 C 752.78 460.75, 755.58 457.04, 760.69 449.25 C 765.81 441.46, 768.38 436.93, 773.13 428.17 C 777.89 419.41, 780.28 414.49, 784.49 405.45 C 788.69 396.42, 790.64 391.67, 794.15 382.99 C 797.67 374.32, 799.31 369.86, 802.08 362.08 C 804.85 354.31, 806.01 350.52, 808.01 344.12 C 810.01 337.73, 810.75 334.80, 812.08 330.11 C 813.41 325.42, 814.69 323.56, 814.68 320.68 C 814.67 317.81, 813.60 316.55, 812.04 315.74 C 810.47 314.94, 808.36 314.77, 806.83 316.65 C 805.31 318.53, 805.32 320.43, 804.41 325.14 C 803.49 329.84, 803.36 333.11, 802.27 340.17 C 801.17 347.24, 800.41 351.72, 798.94 360.46 C 797.47 369.21, 796.46 374.40, 794.92 383.89 C 793.38 393.38, 792.54 398.63, 791.24 407.90 C 789.95 417.17, 789.33 421.98, 788.45 430.24 C 787.56 438.50, 787.14 442.42, 786.83 449.19 C 786.51 455.96, 786.45 459.05, 786.88 464.10 C 787.30 469.15, 787.82 472.49, 788.95 474.44 C 790.08 476.39, 792.09 475.98, 792.55 473.84 C 793.00 471.71, 791.56 468.67, 791.22 463.77 C 790.87 458.86, 790.67 455.96, 790.81 449.32 C 790.95 442.69, 791.16 438.78, 791.90 430.58 C 792.64 422.39, 793.22 417.57, 794.50 408.35 C 795.77 399.12, 796.62 393.89, 798.27 384.46 C 799.93 375.03, 800.98 369.84, 802.79 361.19 C 804.61 352.54, 805.61 348.08, 807.34 341.20 C 809.06 334.31, 810.21 331.23, 811.41 326.75 C 812.61 322.27, 813.54 320.88, 813.32 318.81 C 813.11 316.75, 811.51 316.24, 810.36 316.44 C 809.20 316.64, 808.24 317.29, 807.57 319.80 C 806.89 322.31, 807.66 324.36, 806.97 329.00 C 806.29 333.65, 805.75 336.63, 804.13 343.02 C 802.50 349.41, 801.41 353.21, 798.83 360.97 C 796.26 368.73, 794.67 373.19, 791.24 381.83 C 787.82 390.46, 785.89 395.20, 781.72 404.16 C 777.54 413.13, 775.15 418.02, 770.37 426.66 C 765.60 435.29, 763.00 439.76, 757.84 447.34 C 752.67 454.92, 749.82 458.53, 744.55 464.54 C 739.29 470.56, 736.54 473.31, 731.52 477.41 C 726.51 481.51, 723.87 482.98, 719.48 485.04 C 715.09 487.09, 712.94 487.41, 709.57 487.68 C 706.21 487.94, 704.98 487.59, 702.65 486.37 C 700.31 485.14, 699.28 484.34, 697.90 481.55 C 696.51 478.76, 695.84 476.80, 695.71 472.43 C 695.58 468.07, 695.79 465.13, 697.23 459.73 C 698.67 454.33, 699.93 451.02, 702.89 445.43 C 705.86 439.84, 708.01 436.79, 712.06 431.80 C 716.12 426.80, 718.57 424.31, 723.16 420.46 C 727.75 416.60, 730.40 414.96, 735.01 412.53 C 739.63 410.09, 742.10 409.35, 746.23 408.28 C 750.35 407.21, 752.31 407.09, 755.66 407.18 C 759.02 407.27, 760.49 408.26, 763.00 408.73 C 765.51 409.21, 766.32 409.50, 768.21 409.55 C 770.10 409.59, 771.20 409.84, 772.44 408.95 C 773.67 408.06, 774.57 406.71, 774.38 405.10" style="stroke: black; stroke-width: 14px; fill: black;"/><path d="M 847.54,398.28 C 846.08 399.00, 845.05 400.05, 844.24 402.64 C 843.43 405.23, 843.71 407.02, 843.49 411.23 C 843.28 415.45, 843.20 418.42, 843.19 423.71 C 843.18 428.99, 843.18 432.16, 843.45 437.65 C 843.72 443.13, 843.81 446.09, 844.54 451.14 C 845.28 456.19, 845.62 458.74, 847.12 462.91 C 848.62 467.07, 849.45 469.19, 852.05 471.97 C 854.66 474.75, 856.60 476.00, 860.16 476.82 C 863.72 477.65, 865.94 477.37, 869.86 476.10 C 873.78 474.83, 875.76 473.53, 879.75 470.48 C 883.75 467.42, 885.77 465.29, 889.83 460.82 C 893.89 456.36, 895.99 453.56, 900.05 448.15 C 904.12 442.73, 906.35 439.39, 910.16 433.74 C 913.97 428.10, 915.84 424.91, 919.10 419.93 C 922.37 414.94, 923.85 412.42, 926.50 408.83 C 929.14 405.23, 930.93 404.13, 932.33 401.95 C 933.72 399.77, 933.63 398.77, 933.47 397.92 C 933.32 397.06, 932.29 396.69, 931.54 397.66 C 930.80 398.63, 930.00 399.66, 929.74 402.76 C 929.48 405.87, 930.36 408.18, 930.24 413.20 C 930.13 418.21, 929.83 421.60, 929.17 427.83 C 928.52 434.07, 927.84 437.85, 926.97 444.38 C 926.09 450.91, 925.49 454.59, 924.81 460.48 C 924.12 466.36, 923.54 469.27, 923.53 473.80 C 923.53 478.33, 923.81 481.30, 924.80 483.13 C 925.78 484.95, 927.68 484.76, 928.47 482.93 C 929.26 481.10, 928.47 478.35, 928.76 473.98 C 929.05 469.60, 929.29 466.84, 929.93 461.06 C 930.57 455.28, 931.00 451.57, 931.96 445.08 C 932.92 438.59, 933.64 434.85, 934.73 428.61 C 935.82 422.38, 936.52 419.04, 937.42 413.91 C 938.31 408.79, 939.29 406.55, 939.19 402.99 C 939.09 399.43, 938.45 397.86, 936.91 396.11 C 935.38 394.36, 933.70 394.03, 931.52 394.24 C 929.35 394.45, 928.04 394.89, 926.04 397.17 C 924.04 399.45, 923.76 401.63, 921.53 405.65 C 919.30 409.67, 917.94 412.19, 914.88 417.28 C 911.83 422.37, 910.00 425.54, 906.25 431.11 C 902.51 436.68, 900.25 439.97, 896.16 445.14 C 892.07 450.32, 889.86 452.98, 885.81 456.97 C 881.76 460.95, 879.55 462.71, 875.92 465.09 C 872.28 467.46, 870.44 468.03, 867.63 468.83 C 864.82 469.62, 863.90 469.47, 861.86 469.07 C 859.82 468.66, 859.14 468.51, 857.43 466.80 C 855.72 465.09, 854.69 463.84, 853.32 460.52 C 851.94 457.20, 851.30 454.83, 850.55 450.22 C 849.80 445.60, 849.67 442.68, 849.58 437.44 C 849.49 432.19, 849.67 429.07, 850.09 424.00 C 850.52 418.92, 851.09 416.05, 851.69 412.05 C 852.30 408.05, 853.16 406.59, 853.14 403.98 C 853.11 401.38, 852.69 400.17, 851.57 399.03 C 850.45 397.89, 849.01 397.56, 847.54 398.28" style="stroke: black; stroke-width: 14px; fill: black;"/><path d="M 990.57,396.49 C 991.22 397.85, 992.01 398.50, 994.00 399.29 C 996.00 400.09, 997.50 400.37, 1000.54 400.46 C 1003.58 400.55, 1005.53 399.88, 1009.19 399.74 C 1012.84 399.59, 1014.95 399.58, 1018.81 399.73 C 1022.67 399.88, 1024.84 400.00, 1028.49 400.48 C 1032.14 400.97, 1034.03 401.28, 1037.06 402.16 C 1040.09 403.03, 1041.40 403.80, 1043.63 404.84 C 1045.87 405.89, 1046.92 406.38, 1048.23 407.38 C 1049.54 408.38, 1049.98 408.63, 1050.17 409.84 C 1050.36 411.06, 1049.93 411.42, 1049.19 413.46 C 1048.45 415.50, 1048.32 417.02, 1046.47 420.05 C 1044.62 423.07, 1043.10 425.00, 1039.92 428.59 C 1036.75 432.18, 1034.54 434.23, 1030.59 438.00 C 1026.63 441.77, 1024.19 443.80, 1020.16 447.44 C 1016.12 451.08, 1013.85 452.85, 1010.41 456.18 C 1006.98 459.51, 1005.13 460.88, 1003.00 464.10 C 1000.88 467.33, 999.98 469.10, 999.80 472.33 C 999.61 475.56, 1000.22 477.59, 1002.09 480.25 C 1003.95 482.91, 1005.67 484.12, 1009.13 485.62 C 1012.58 487.13, 1014.91 487.29, 1019.38 487.79 C 1023.84 488.30, 1026.41 488.27, 1031.44 488.15 C 1036.47 488.04, 1039.34 487.76, 1044.52 487.21 C 1049.70 486.66, 1052.45 486.27, 1057.33 485.40 C 1062.21 484.54, 1064.57 484.03, 1068.91 482.89 C 1073.25 481.75, 1075.39 481.23, 1079.03 479.72 C 1082.66 478.21, 1084.73 477.55, 1087.09 475.35 C 1089.45 473.15, 1090.70 470.63, 1090.84 468.74 C 1090.99 466.84, 1089.53 465.81, 1087.82 465.89 C 1086.11 465.96, 1084.65 467.67, 1082.29 469.11 C 1079.93 470.54, 1079.06 471.55, 1076.02 473.05 C 1072.98 474.56, 1071.06 475.37, 1067.10 476.63 C 1063.14 477.88, 1060.85 478.46, 1056.22 479.34 C 1051.59 480.22, 1048.88 480.61, 1043.94 481.01 C 1038.99 481.42, 1036.16 481.57, 1031.49 481.38 C 1026.83 481.19, 1024.40 480.86, 1020.61 480.05 C 1016.81 479.25, 1015.05 478.30, 1012.51 477.35 C 1009.98 476.40, 1009.05 476.20, 1007.93 475.32 C 1006.81 474.44, 1006.67 474.41, 1006.90 472.96 C 1007.13 471.51, 1007.49 470.56, 1009.09 468.07 C 1010.69 465.59, 1011.90 463.81, 1014.90 460.55 C 1017.89 457.28, 1020.13 455.38, 1024.08 451.75 C 1028.03 448.13, 1030.51 446.10, 1034.65 442.41 C 1038.80 438.71, 1041.12 436.83, 1044.80 433.29 C 1048.48 429.75, 1050.37 428.09, 1053.06 424.71 C 1055.74 421.34, 1057.21 419.75, 1058.22 416.41 C 1059.24 413.06, 1058.93 411.06, 1058.13 408.00 C 1057.33 404.95, 1056.37 403.43, 1054.25 401.12 C 1052.12 398.82, 1050.55 397.90, 1047.51 396.50 C 1044.47 395.10, 1042.66 394.88, 1039.06 394.10 C 1035.47 393.32, 1033.45 393.12, 1029.52 392.62 C 1025.60 392.11, 1023.42 392.02, 1019.44 391.57 C 1015.46 391.12, 1013.33 390.83, 1009.61 390.35 C 1005.89 389.87, 1003.89 389.26, 1000.83 389.19 C 997.78 389.12, 996.33 389.34, 994.32 390.00 C 992.30 390.66, 991.50 391.19, 990.75 392.49 C 990.00 393.78, 989.92 395.12, 990.57 396.49" style="stroke: black; stroke-width: 14px; fill: black;"/><path d="M 1117.45,358.38 C 1116.27 359.26, 1115.68 360.06, 1115.39 362.42 C 1115.10 364.78, 1115.76 366.18, 1116.01 370.20 C 1116.26 374.21, 1116.61 376.90, 1116.64 382.51 C 1116.68 388.11, 1116.58 391.61, 1116.20 398.22 C 1115.81 404.83, 1115.45 408.58, 1114.73 415.55 C 1114.02 422.52, 1113.48 426.36, 1112.61 433.07 C 1111.75 439.79, 1111.27 443.23, 1110.43 449.12 C 1109.58 455.01, 1109.14 457.88, 1108.40 462.54 C 1107.65 467.19, 1106.48 469.26, 1106.68 472.40 C 1106.89 475.54, 1107.75 476.84, 1109.43 478.24 C 1111.11 479.65, 1112.83 480.12, 1115.07 479.42 C 1117.31 478.72, 1118.53 477.68, 1120.63 474.73 C 1122.74 471.78, 1123.12 469.19, 1125.59 464.68 C 1128.05 460.18, 1129.56 457.27, 1132.96 452.19 C 1136.36 447.12, 1138.47 444.18, 1142.59 439.31 C 1146.71 434.43, 1149.16 431.82, 1153.54 427.81 C 1157.92 423.80, 1160.29 421.95, 1164.49 419.23 C 1168.68 416.51, 1170.87 415.48, 1174.50 414.22 C 1178.12 412.96, 1179.93 412.86, 1182.61 412.92 C 1185.28 412.98, 1186.04 413.35, 1187.88 414.52 C 1189.71 415.69, 1190.40 416.15, 1191.79 418.77 C 1193.17 421.38, 1193.95 423.30, 1194.81 427.59 C 1195.67 431.88, 1195.90 434.84, 1196.07 440.23 C 1196.24 445.62, 1196.00 448.90, 1195.64 454.52 C 1195.29 460.15, 1194.84 463.28, 1194.31 468.34 C 1193.77 473.41, 1193.22 475.91, 1192.96 479.85 C 1192.69 483.79, 1192.47 485.58, 1192.98 488.04 C 1193.50 490.50, 1194.58 491.16, 1195.55 492.16 C 1196.51 493.17, 1197.11 493.08, 1197.82 493.06 C 1198.52 493.05, 1198.71 492.53, 1199.09 492.08 C 1199.47 491.64, 1199.38 491.80, 1199.71 490.83 C 1200.05 489.87, 1200.73 489.42, 1200.78 487.25 C 1200.83 485.09, 1200.07 483.68, 1199.96 479.99 C 1199.86 476.31, 1199.96 473.84, 1200.23 468.82 C 1200.50 463.80, 1200.95 460.62, 1201.32 454.89 C 1201.69 449.15, 1202.07 445.84, 1202.10 440.16 C 1202.13 434.47, 1202.20 431.41, 1201.46 426.44 C 1200.72 421.47, 1200.31 419.00, 1198.40 415.31 C 1196.48 411.61, 1195.06 409.87, 1191.89 407.97 C 1188.72 406.07, 1186.47 405.71, 1182.55 405.82 C 1178.62 405.94, 1176.49 406.74, 1172.28 408.54 C 1168.07 410.35, 1165.92 411.71, 1161.50 414.84 C 1157.09 417.97, 1154.73 419.95, 1150.19 424.19 C 1145.65 428.44, 1143.17 431.11, 1138.82 436.05 C 1134.47 441.00, 1132.28 443.96, 1128.43 448.91 C 1124.57 453.86, 1122.67 456.64, 1119.55 460.80 C 1116.44 464.95, 1114.53 466.80, 1112.85 469.68 C 1111.17 472.55, 1111.15 473.82, 1111.15 475.17 C 1111.16 476.53, 1112.21 476.99, 1112.88 476.45 C 1113.55 475.91, 1114.23 475.15, 1114.49 472.48 C 1114.75 469.81, 1114.05 467.66, 1114.20 463.10 C 1114.35 458.55, 1114.67 455.59, 1115.24 449.70 C 1115.81 443.80, 1116.26 440.35, 1117.06 433.62 C 1117.86 426.89, 1118.41 423.05, 1119.24 416.06 C 1120.08 409.06, 1120.50 405.29, 1121.23 398.64 C 1121.96 392.00, 1122.30 388.50, 1122.89 382.81 C 1123.47 377.12, 1123.93 374.37, 1124.16 370.19 C 1124.40 366.00, 1124.66 364.33, 1124.08 361.89 C 1123.50 359.46, 1122.60 358.72, 1121.28 358.02 C 1119.95 357.31, 1118.63 357.50, 1117.45 358.38" style="stroke: black; stroke-width: 14px; fill: black;"/><path d="M 1257.06,408.90 C 1255.76 409.83, 1254.98 410.82, 1254.52 413.51 C 1254.07 416.19, 1254.88 418.11, 1254.79 422.33 C 1254.71 426.56, 1254.63 429.34, 1254.08 434.65 C 1253.53 439.96, 1253.04 443.23, 1252.05 448.88 C 1251.05 454.52, 1250.31 457.67, 1249.10 462.87 C 1247.88 468.07, 1247.05 470.70, 1245.97 474.88 C 1244.89 479.07, 1243.98 480.91, 1243.68 483.79 C 1243.39 486.66, 1243.76 488.03, 1244.50 489.25 C 1245.24 490.48, 1246.19 490.70, 1247.40 489.92 C 1248.61 489.14, 1249.55 488.06, 1250.53 485.34 C 1251.51 482.62, 1251.46 480.57, 1252.29 476.32 C 1253.13 472.07, 1253.61 469.36, 1254.69 464.09 C 1255.77 458.82, 1256.51 455.65, 1257.68 449.95 C 1258.85 444.25, 1259.55 440.98, 1260.55 435.58 C 1261.55 430.19, 1262.06 427.36, 1262.69 422.99 C 1263.31 418.61, 1264.01 416.53, 1263.68 413.70 C 1263.34 410.87, 1262.33 409.80, 1261.01 408.84 C 1259.68 407.88, 1258.35 407.97, 1257.06 408.90" style="stroke: black; stroke-width: 14px; fill: black;"/><path d="M 1272.14,352.37 C 1273.86 352.41, 1275.30 352.21, 1275.71 351.94 C 1276.13 351.67, 1275.11 351.33, 1274.22 351.00 C 1273.34 350.68, 1272.44 350.58, 1271.30 350.32 C 1270.16 350.06, 1269.69 349.82, 1268.51 349.71 C 1267.34 349.60, 1266.38 349.60, 1265.43 349.76 C 1264.48 349.93, 1263.42 350.14, 1263.75 350.54 C 1264.09 350.93, 1265.44 351.36, 1267.12 351.73 C 1268.80 352.09, 1270.42 352.33, 1272.14 352.37" style="stroke: black; stroke-width: 14px; fill: black;"/></svg>
